<svg xmlns="http://www.w3.org/2000/svg" width="123" height="43" viewBox="0 0 123 43" fill="none"><path d="M66.8699 27.6992C65.4409 27.1496 64.4218 25.7606 64.4218 24.1419V22.593V0H59.9451V22.593V24.1419C59.9451 28.7184 63.6724 32.4456 68.249 32.4456H70.6771C68.9783 31.3365 67.6293 29.7077 66.8899 27.6992" fill="#F8FAFC"></path><path d="M83.3472 20.5046C83.1774 18.7259 81.2989 16.2278 78.0114 16.2677C74.6939 16.2677 72.8852 18.6659 72.7053 20.5046H83.3472ZM72.6353 23.922C72.8452 26.9297 75.5031 28.6085 78.0712 28.5685C80.2595 28.5685 81.7285 27.5792 82.5878 26.0404H87.2045C86.3151 28.1288 84.9761 29.6976 83.4073 30.7569C81.8384 31.846 79.9897 32.3956 78.0412 32.3956C72.2655 32.3956 68.1187 27.7091 68.1187 22.4731C68.1187 17.237 72.2957 12.4506 77.9714 12.4506C80.7793 12.4506 83.2375 13.5098 84.9862 15.3284C87.2744 17.6867 88.1338 20.6345 87.7541 23.912H72.6353V23.922Z" fill="#F8FAFC"></path><path d="M15.4583 20.5046C15.2884 18.7259 13.4098 16.2278 10.1222 16.2677C6.80471 16.2677 4.99626 18.6659 4.81639 20.5046H15.4583ZM4.74638 23.922C4.95622 26.9297 7.62416 28.6085 10.1822 28.5685C12.3706 28.5685 13.8395 27.5792 14.6989 26.0404H19.3153C18.4259 28.1288 17.0871 29.6976 15.5183 30.7569C13.9495 31.846 12.1008 32.3956 10.1522 32.3956C4.37657 32.3956 0.229752 27.7091 0.229752 22.4731C0.229752 17.237 4.40648 12.4506 10.0822 12.4506C12.8901 12.4506 15.3483 13.5098 17.097 15.3284C19.3852 17.6867 20.2446 20.6345 19.8649 23.912H4.74638V23.922Z" fill="#F8FAFC"></path><path d="M47.2445 28.1688C44.1668 28.1688 41.6686 25.7406 41.6686 22.4531V22.4231C41.6686 19.1056 44.1668 16.6775 47.2445 16.6775C50.3222 16.6775 52.7804 19.1056 52.7804 22.4231C52.7804 25.7406 50.3222 28.1688 47.2445 28.1688ZM47.2445 12.5006C40.7094 12.5006 37.192 17.5968 37.192 22.3832V22.4131C37.192 23.2725 37.302 24.1319 37.5218 24.9812H37.4318C36.7423 26.5201 35.1734 28.1988 32.3655 28.1988C29.1879 28.1988 26.8296 25.8006 26.8296 22.4231C26.8296 20.7844 27.4092 19.2755 28.3685 18.2463C29.4677 17.1871 30.7267 16.6075 32.3655 16.6375C33.4747 16.6375 34.4541 16.9273 35.2735 17.4269C35.8331 16.1079 36.6724 14.9488 37.7116 14.0095C36.1228 13.0202 34.2342 12.4706 32.2057 12.4706C26.5999 12.4706 22.323 16.8873 22.323 22.4231C22.323 27.959 26.43 32.4056 32.3755 32.4056C35.3933 32.4056 37.9814 31.1466 39.7601 29.1881C41.4588 31.0866 43.9769 32.3657 47.2645 32.3657C53.7996 32.3657 57.3167 27.2695 57.3167 22.4131C57.3167 17.5568 53.7896 12.4906 47.2645 12.4906" fill="#F8FAFC"></path><path d="M0.759131 41.7285H3.15723V42.2281H0.219498V37.8314H0.759131V41.7285Z" fill="#F8FAFC"></path><path d="M3.94717 37.8314H7.03494V38.3411H4.48681V39.71H6.93492V40.2196H4.48681V41.7085H7.14472V42.2281H3.94717V37.8314Z" fill="#F8FAFC"></path><path d="M9.61259 38.2313C9.05302 38.2313 8.45355 38.4511 8.45355 38.9807C8.45355 39.4604 9.00308 39.6003 9.6426 39.7002C10.5219 39.8401 11.3913 40.01 11.3913 41.0092C11.3913 41.9985 10.442 42.3182 9.60259 42.3182C8.82318 42.3182 8.08387 42.0384 7.74413 41.299L8.19374 41.0392C8.47353 41.5588 9.063 41.8086 9.60259 41.8086C10.1422 41.8086 10.8517 41.6387 10.8517 40.9892C10.8517 40.4396 10.2421 40.2897 9.58259 40.1898C8.73323 40.0599 7.91392 39.8601 7.91392 38.9707C7.90393 38.0514 8.83317 37.7417 9.60259 37.7417C10.2521 37.7417 10.8818 37.8716 11.2715 38.5411L10.8617 38.8009C10.6218 38.4212 10.1122 38.2413 9.6226 38.2313" fill="#F8FAFC"></path><path d="M17.107 37.8314V38.351H14.5988V39.8899H16.9972V40.3995H14.5988V42.2381H14.0494V37.8314H17.107Z" fill="#F8FAFC"></path><path d="M21.6138 37.8414V40.4794C21.6138 41.6985 20.7944 42.3181 19.8251 42.3181C18.8559 42.3181 18.0167 41.7185 18.0167 40.4794V37.8414H18.5563V40.4794C18.5563 41.3488 19.1356 41.8085 19.8151 41.8085C20.4946 41.8085 21.0544 41.3288 21.0544 40.4695V37.8314H21.5938L21.6138 37.8414Z" fill="#F8FAFC"></path><path d="M22.3533 38.3211V37.8314H25.8907V38.3211H24.3918V42.2281H23.8521V38.3211H22.3533Z" fill="#F8FAFC"></path><path d="M30.217 37.8414V40.4794C30.217 41.6985 29.3976 42.3181 28.4283 42.3181C27.459 42.3181 26.6196 41.7185 26.6196 40.4794V37.8414H27.1592V40.4794C27.1592 41.3488 27.7388 41.8085 28.4183 41.8085C29.0978 41.8085 29.6573 41.3288 29.6573 40.4695V37.8314H30.197L30.217 37.8414Z" fill="#F8FAFC"></path><path d="M34.3643 39.2504C34.3643 38.8107 34.0546 38.3211 33.425 38.3211H31.9762V40.1597H33.405C34.0645 40.1597 34.3743 39.75 34.3743 39.2504M33.0454 40.6493H31.9762V42.2281H31.4265V37.8314H33.425C34.4143 37.8314 34.9139 38.5209 34.9139 39.2404C34.9139 39.9099 34.5542 40.5294 33.6548 40.5994L35.1037 42.2281H34.4143L33.0454 40.6493Z" fill="#F8FAFC"></path><path d="M37.5118 38.2313C36.9522 38.2313 36.3525 38.4511 36.3525 38.9807C36.3525 39.4604 36.9023 39.6003 37.5418 39.7002C38.4211 39.8401 39.2905 40.01 39.2905 41.0092C39.2905 41.9985 38.3412 42.3182 37.5018 42.3182C36.7224 42.3182 35.9828 42.0384 35.6431 41.299L36.0927 41.0392C36.3725 41.5588 36.9622 41.8086 37.5018 41.8086C38.0414 41.8086 38.7409 41.6387 38.7409 40.9892C38.7409 40.4396 38.1313 40.2897 37.4718 40.1898C36.6224 40.0599 35.8029 39.8601 35.8029 38.9707C35.7929 38.0514 36.7224 37.7417 37.4918 37.7417C38.1413 37.7417 38.7708 37.8716 39.1605 38.5411L38.7509 38.8009C38.511 38.4212 38.0014 38.2413 37.5118 38.2313Z" fill="#F8FAFC"></path><path d="M41.299 38.3211V37.8314H44.8364V38.3211H43.3375V42.2281H42.7979V38.3211H41.299Z" fill="#F8FAFC"></path><path d="M47.0144 38.391L45.9752 40.7692H48.0634L47.0244 38.391H47.0144ZM47.324 37.8314L49.2925 42.2281H48.7031L48.2735 41.2589H45.7554L45.3255 42.2281H44.7261L46.6946 37.8314H47.314H47.324Z" fill="#F8FAFC"></path><path d="M50.6321 41.7285H53.0204V42.2281H50.0824V37.8314H50.6321V41.7285Z" fill="#F8FAFC"></path><path d="M53.8091 37.8314H56.9069V38.3411H54.3488V39.71H56.7969V40.2196H54.3488V41.7085H57.0069V42.2281H53.8091V37.8314Z" fill="#F8FAFC"></path><path d="M58.376 37.8314L61.0739 41.1989V37.8314H61.6136V42.2281H61.244L58.5358 38.8807V42.2281H57.9964V37.8314H58.376Z" fill="#F8FAFC"></path><path d="M62.4032 38.3211V37.8314H65.9406V38.3211H64.4418V42.2281H63.9021V38.3211H62.4032Z" fill="#F8FAFC"></path><path d="M68.2485 38.2313C67.6889 38.2313 67.0892 38.4511 67.0892 38.9807C67.0892 39.4604 67.6387 39.6003 68.2782 39.7002C69.1576 39.8401 70.0269 40.01 70.0269 41.0092C70.0269 41.9985 69.0778 42.3182 68.2385 42.3182C67.459 42.3182 66.7195 42.0384 66.3797 41.299L66.8294 41.0392C67.1091 41.5588 67.6989 41.8086 68.2385 41.8086C68.7781 41.8086 69.4775 41.6387 69.4775 40.9892C69.4775 40.4396 68.868 40.2897 68.2084 40.1898C67.3591 40.0599 66.5395 39.8601 66.5395 38.9707C66.5295 38.0514 67.459 37.7417 68.2285 37.7417C68.878 37.7417 69.5074 37.8716 69.8971 38.5411L69.4875 38.8009C69.2477 38.4212 68.7381 38.2413 68.2485 38.2313Z" fill="#F8FAFC"></path><path d="M75.9629 39.9798C75.9629 39.1604 75.4231 38.361 74.294 38.361H73.235V41.6885H74.294C75.4631 41.6885 75.9629 40.8192 75.9629 39.9798ZM72.6953 37.8314H74.294C75.7929 37.8314 76.5025 38.9006 76.5025 39.9898C76.5025 41.079 75.8328 42.2381 74.294 42.2381H72.6953V37.8414V37.8314Z" fill="#F8FAFC"></path><path d="M81.0389 37.8414V40.4794C81.0389 41.6985 80.2197 42.3181 79.2505 42.3181C78.2812 42.3181 77.4418 41.7185 77.4418 40.4794V37.8414H77.9814V40.4794C77.9814 41.3488 78.561 41.8085 79.2405 41.8085C79.9199 41.8085 80.4795 41.3288 80.4795 40.4695V37.8314H81.0189L81.0389 37.8414Z" fill="#F8FAFC"></path><path d="M84.3362 37.8314L87.0242 41.1989V37.8314H87.5738V42.2281H87.1942L84.4863 38.8807V42.2281H83.9466V37.8314H84.3362Z" fill="#F8FAFC"></path><path d="M92.3705 37.8414V40.4794C92.3705 41.6985 91.5511 42.3181 90.5818 42.3181C89.6125 42.3181 88.7731 41.7185 88.7731 40.4794V37.8414H89.3127V40.4794C89.3127 41.3488 89.8923 41.8085 90.5718 41.8085C91.2513 41.8085 91.8108 41.3288 91.8108 40.4695V37.8314H92.3505L92.3705 37.8414Z" fill="#F8FAFC"></path><path d="M95.8279 40.8492H95.7181L94.1192 38.6109V42.2281H93.5795V37.8314H94.2292L95.7778 40.0997L97.3067 37.8314H97.9664V42.2281H97.4268V38.6208L95.8279 40.8492Z" fill="#F8FAFC"></path><path d="M100.924 36.5726H101.563V36.5926L100.924 37.402H100.454V37.372L100.924 36.5726ZM99.2252 37.8317H102.313V38.3313H99.7646V39.7103H102.213V40.2199H99.7646V41.7088H102.413V42.2284H99.2252V37.8317Z" fill="#F8FAFC"></path><path d="M106.35 39.2504C106.35 38.8107 106.04 38.3211 105.411 38.3211H103.962V40.1597H105.391C106.05 40.1597 106.36 39.75 106.36 39.2504M105.021 40.6493H103.952V42.2281H103.402V37.8314H105.401C106.39 37.8314 106.89 38.5209 106.89 39.2404C106.89 39.9099 106.53 40.5294 105.631 40.5994L107.079 42.2281H106.39L105.021 40.6493Z" fill="#F8FAFC"></path><path d="M108.528 37.8314H107.979V42.2281H108.528V37.8314Z" fill="#F8FAFC"></path><path d="M110.057 40.0197C110.057 40.919 110.617 41.7684 111.746 41.7684C112.875 41.7684 113.445 40.8891 113.435 39.9897C113.425 39.1004 112.915 38.251 111.756 38.251C110.667 38.261 110.057 39.0904 110.057 40.0097M113.135 41.8583C112.785 42.1281 112.315 42.288 111.756 42.288C110.227 42.288 109.508 41.1888 109.508 40.0097C109.508 38.8506 110.247 37.7514 111.756 37.7514C113.265 37.7514 113.984 38.8406 113.994 40.0097C113.994 40.5293 113.834 41.0689 113.525 41.4886L114.074 42.0182L113.695 42.3979L113.145 41.8683L113.135 41.8583Z" fill="#F8FAFC"></path><path d="M118.521 37.8414V40.4794C118.521 41.6985 117.701 42.3181 116.732 42.3181C115.763 42.3181 114.923 41.7185 114.923 40.4794V37.8414H115.463V40.4794C115.463 41.3488 116.043 41.8085 116.722 41.8085C117.402 41.8085 117.961 41.3288 117.961 40.4695V37.8314H118.501L118.521 37.8414Z" fill="#F8FAFC"></path><path d="M119.73 37.8314H122.828V38.3411H120.27V39.71H122.718V40.2196H120.27V41.7085H122.928V42.2281H119.73V37.8314Z" fill="#F8FAFC"></path><path d="M122.888 7.38459H103.712V11.8213H111.056V32.3059H115.543V11.8213H122.888V7.38459Z" fill="#F8FAFC"></path><path d="M100.914 22.4832V21.454V15.5684H96.4372V21.454V22.4832C96.4372 22.4832 96.4372 22.5631 96.4372 22.6031V22.9229C96.6671 28.2089 101.044 32.4357 106.38 32.4357V27.9491C103.362 27.9491 100.914 25.4909 100.914 22.4832Z" fill="#F8FAFC"></path><path d="M100.904 7.38459H96.4275V12.9404H100.904V7.38459Z" fill="#E71984"></path><path d="M3.91698 9.95248H0V5.46585H3.91698C6.87476 5.46585 9.28307 3.05766 9.28307 0.0998802H13.7697C13.7697 5.5358 9.3529 9.95248 3.91698 9.95248Z" fill="#F8FAFC"></path></svg>